HIERARCHY
ROOT hip
{
	OFFSET 0.000000 0.000000 0.000000 
	CHANNELS 6 Xposition Yposition Zposition Xrotation Zrotation Yrotation
	JOINT abdomen
	{
		OFFSET 0.000000 3.402643 0.000000 
		CHANNELS 3 Xrotation Zrotation Yrotation
		JOINT chest
		{
			OFFSET 0.000000 8.438565 -0.680529 
			CHANNELS 3 Xrotation Zrotation Yrotation
			JOINT neck
			{
				OFFSET 0.000000 10.207942 -0.272212 
				CHANNELS 3 Xrotation Zrotation Yrotation
				JOINT head
				{
					OFFSET 0.000000 3.130431 0.000000 
					CHANNELS 3 Xrotation Zrotation Yrotation
					End Site
					{
						OFFSET 0.000000 3.130435 0.000000 
					}
				}
			}
			JOINT lCollar
			{
				OFFSET 3.470700 6.669187 -0.816635 
				CHANNELS 3 Yrotation Zrotation Xrotation
				JOINT lShldr
				{
					OFFSET 3.198488 0.000000 0.000000 
					CHANNELS 3 Zrotation Yrotation Xrotation
					JOINT lForeArm
					{
						OFFSET 10.139888 0.000000 0.000000 
						CHANNELS 3 Yrotation Zrotation Xrotation
						JOINT lHand
						{
							OFFSET 8.370511 0.000000 0.000000 
							CHANNELS 3 Zrotation Yrotation Xrotation
							End Site
							{
								OFFSET 4.083176 0.000000 0.000000 
							}
						}
					}
				}
			}
			JOINT rCollar
			{
				OFFSET -3.470700 6.669187 -0.816635 
				CHANNELS 3 Yrotation Zrotation Xrotation
				JOINT rShldr
				{
					OFFSET -3.198488 0.000000 0.000000 
					CHANNELS 3 Zrotation Yrotation Xrotation
					JOINT rForeArm
					{
						OFFSET -10.139888 0.000000 0.000000 
						CHANNELS 3 Yrotation Zrotation Xrotation
						JOINT rHand
						{
							OFFSET -8.370511 0.000000 0.000000 
							CHANNELS 3 Zrotation Yrotation Xrotation
							End Site
							{
								OFFSET -4.083176 0.000000 0.000000 
							}
						}
					}
				}
			}
		}
	}
	JOINT lThigh
	{
		OFFSET 5.308129 -1.633274 1.361059 
		CHANNELS 3 Xrotation Zrotation Yrotation
		JOINT lShin
		{
			OFFSET -2.041588 -20.007561 0.000000 
			CHANNELS 3 Xrotation Zrotation Yrotation
			JOINT lFoot
			{
				OFFSET 0.000000 -19.190928 -1.224953 
				CHANNELS 3 Xrotation Yrotation Zrotation
				End Site
				{
					OFFSET 0.000000 -2.449906 4.627600 
				}
			}
		}
	}
	JOINT rThigh
	{
		OFFSET -5.308129 -1.633274 1.361059 
		CHANNELS 3 Xrotation Zrotation Yrotation
		JOINT rShin
		{
			OFFSET 2.041588 -20.007561 0.000000 
			CHANNELS 3 Xrotation Zrotation Yrotation
			JOINT rFoot
			{
				OFFSET 0.000000 -19.190928 -1.224953 
				CHANNELS 3 Xrotation Yrotation Zrotation
				End Site
				{
					OFFSET 0.000000 -2.449906 4.627600 
				}
			}
		}
	}
}
MOTION
Frames: 13
Frame Time: 0.033359
-15.248715 43.135010 -33.283875 13.809247 1.120372 -3.955657 20.551245 -7.322025 18.465815 -6.042978 -9.331594 3.175581 -12.000000 0.000000 0.000000 -18.815643 -16.840454 29.349682 1.836211 -9.294249 2.498747 -59.577347 38.430473 -2.400297 -125.292305 0.279720 0.502101 56.623253 -29.580128 10.198655 -1.658116 1.748558 4.546566 62.598351 -4.360048 -4.018044 95.790642 -0.578513 0.146813 -37.300964 -44.943089 29.646753 -41.339737 5.545440 0.331529 39.384132 -4.377133 -4.033353 17.406176 6.903111 -12.324538 -29.975876 -1.621032 -3.820746 28.210953 5.019126 2.778058 -2.429915 3.977224 11.916874 
-15.300477 43.294109 -33.076550 13.796883 -0.302508 2.216817 20.010357 -4.849333 14.574029 -6.196609 -7.772693 2.995600 -12.000000 0.000000 0.000000 -15.468925 -16.809570 29.767447 0.875054 -7.932775 3.400000 -53.943832 30.431238 3.702508 -129.842606 0.064491 0.387908 65.637726 -30.820423 7.125481 -1.422424 5.744678 4.180039 63.749275 -12.845595 -2.363302 94.721306 -0.302221 0.249371 -36.691868 -43.658051 27.912991 -41.866959 3.700248 -1.833832 39.196152 -4.360979 -4.089761 20.369373 8.071164 -13.347306 -28.675047 -3.631315 -9.093693 28.275185 4.852464 2.803563 -3.560664 4.564204 11.306159 
-15.737625 43.898815 -31.571602 13.548776 -1.860926 9.125755 18.872854 -2.724628 9.649490 -6.071782 -5.853995 2.463282 -12.000000 0.000000 0.000000 -12.736179 -16.451483 31.647091 0.393899 -5.322014 4.045854 -54.853386 21.520939 4.074317 -129.286240 -0.081664 0.228807 65.323715 -27.198168 8.290149 -1.156980 10.335983 3.710248 65.504845 -22.088587 -2.059518 94.272865 -0.187463 0.210428 -34.897678 -42.062931 25.441990 -38.674942 3.085305 -2.178357 34.866184 -4.678919 -3.715678 19.189505 7.950082 -11.662898 -26.861439 -5.135472 -13.720366 27.680355 5.111027 2.433037 -2.697578 4.346214 11.476882 
-16.269384 44.688824 -28.712252 13.108078 -3.501873 15.997030 17.141882 -1.042889 3.574693 -5.600180 -3.582531 1.633774 -12.000000 0.000000 0.000000 -11.306366 -16.141687 35.883915 0.295785 -1.202097 4.395854 -59.527794 11.198096 0.768855 -124.355026 -0.115603 0.121261 57.209038 -18.582804 12.338858 -1.396512 13.054470 3.079840 66.936775 -30.013815 -0.703001 94.722481 -0.167091 0.210773 -32.764355 -40.833603 24.137531 -32.099247 3.759664 -1.023511 26.653025 -5.244131 -2.936533 14.306708 6.249743 -8.189146 -23.677984 -5.408360 -17.344856 25.294783 5.232589 2.067547 -1.913226 3.369227 12.434476 
-16.672981 45.316013 -26.473169 12.539965 -4.884008 22.213081 15.763786 0.244019 -1.806624 -5.124263 -1.835745 0.830278 -12.000000 0.000000 0.000000 -10.889801 -16.533745 39.042274 0.376901 3.099514 4.680291 -63.638268 0.269272 -2.475612 -117.488747 0.073558 0.338066 47.597214 -7.897676 15.431834 -2.028022 14.182835 2.211278 69.517532 -36.966801 -1.066707 95.777397 -0.222515 0.235056 -29.821215 -39.831036 23.622534 -26.625790 4.666914 0.248850 19.191433 -5.603962 -2.131677 13.040909 3.356173 -5.657527 -19.124552 -4.975939 -20.433401 20.523102 5.330753 1.816524 -1.993585 2.603845 13.584313 
-17.035154 45.787682 -26.494947 11.884847 -5.839349 27.084551 15.730067 1.431344 -4.386078 -5.136302 -1.406219 0.380745 -12.000000 0.000000 0.000000 -11.409149 -17.531099 38.924423 0.438498 5.824062 4.920705 -66.096283 -7.445903 -4.532555 -110.807365 0.271517 0.489136 39.873344 0.371248 16.864212 -2.727620 14.624207 1.360192 74.894569 -41.827209 -6.324085 97.367966 -0.185798 0.299455 -26.703171 -38.943779 23.485844 -26.111746 4.598910 0.253622 17.172983 -5.614176 -1.963861 19.194973 1.129711 -2.760909 -15.687338 -4.740894 -22.735657 16.219572 5.438900 1.556055 -1.717750 1.724095 14.770564 
-17.629122 45.992363 -28.781134 11.203550 -6.308998 29.866224 17.020687 2.667084 -4.624124 -5.651650 -2.197254 0.185410 -12.000000 0.000000 0.000000 -12.946396 -18.476049 38.311707 0.443429 5.628735 4.924837 -68.229767 -7.774213 -6.342140 -105.709190 0.179289 0.399291 35.971401 3.554777 17.650513 -3.399191 14.812189 0.704351 79.816353 -43.270515 -11.901029 99.643730 -0.148035 0.328936 -24.931768 -37.880215 23.292097 -30.370041 3.310363 -0.993687 20.207476 -5.467531 -2.365495 31.810982 0.972906 0.073323 -16.033234 -5.476841 -23.178381 16.419510 5.456861 1.585857 -0.608550 0.332278 16.479311 
-17.969009 45.497631 -31.529171 10.645304 -6.132337 29.412222 18.938217 3.684137 -3.600746 -6.226703 -3.515620 0.097472 -12.000000 0.000000 0.000000 -15.149933 -18.817312 40.196629 0.280922 2.710850 4.723680 -71.325340 -0.764784 -8.652615 -101.498100 0.259998 0.424470 35.016235 2.186167 18.669415 -3.674470 15.182644 0.352058 77.978973 -41.967033 -10.133058 103.434914 -0.007524 0.267770 -25.693365 -35.777546 22.061769 -35.395847 1.933281 -2.600785 25.065765 -5.332414 -2.951507 40.100876 1.775411 -0.675118 -18.676693 -6.294533 -21.645105 20.024208 5.242692 1.934583 -1.696817 -0.871678 17.750460 
-17.091513 44.462879 -32.442646 10.128292 -5.151330 24.852482 20.852242 4.090196 -1.605144 -6.636463 -4.746027 0.303312 -12.000000 0.000000 0.000000 -17.630684 -18.421623 44.853027 0.045507 -1.610619 4.579526 -75.290733 10.277022 -12.207867 -97.623131 0.250456 0.491497 35.253555 -1.613060 19.862127 -3.583643 15.521984 0.400581 68.598526 -37.804882 0.013673 109.070396 0.071105 0.248891 -29.140312 -32.838715 20.016052 -37.176838 1.327610 -4.033454 30.434292 -5.088646 -3.473345 31.473871 3.583842 -4.045499 -22.181875 -6.597978 -18.454550 25.762478 4.944176 2.465885 -6.074867 -0.629113 17.463249 
-16.261871 43.192837 -33.172935 9.514268 -3.491785 17.073242 22.383175 3.172602 1.594761 -6.609848 -5.614572 0.882333 -12.000000 0.000000 0.000000 -19.667488 -17.821762 49.648304 -0.168863 -6.007088 4.385456 -78.785568 22.020025 -15.658738 -94.531448 0.132275 0.605953 36.249973 -6.441507 20.821898 -3.308139 15.065020 0.743255 60.537491 -29.984217 8.827701 114.081764 -0.048376 0.139468 -33.364216 -30.542578 18.734303 -39.089142 1.786847 -3.997043 37.668827 -4.503508 -3.987949 22.244308 6.076712 -7.120900 -26.799730 -6.295762 -13.612597 33.072018 4.653234 3.060993 -9.943495 0.949052 17.147701 
-16.522898 42.057259 -35.284756 8.778058 -1.712387 7.835516 23.680799 0.796036 6.240850 -6.152549 -6.207872 1.807455 -12.000000 0.000000 0.000000 -21.036575 -17.635508 51.609303 -0.380521 -9.098028 4.258130 -79.162979 31.429607 -15.344547 -92.878159 0.248348 0.609984 37.233910 -10.731129 21.304138 -2.938659 12.661621 1.434877 59.308228 -19.239756 10.044439 115.488541 -0.249676 0.105102 -36.931023 -30.453054 20.593731 -42.913311 3.944471 -2.701936 44.671616 -3.960567 -4.520373 27.003695 5.660494 -9.681442 -30.503981 -4.589174 -7.424289 37.644272 4.481992 3.338758 -10.874184 2.216731 17.714916 
-16.842394 41.813747 -36.760925 7.980693 -0.117167 -1.064471 24.537239 -2.191987 11.434116 -5.519863 -6.622948 2.811484 -12.000000 0.000000 0.000000 -21.795990 -18.105700 50.184216 -0.465259 -10.064177 4.277210 -75.514183 37.057072 -10.254612 -93.330582 0.318713 0.458094 37.906578 -13.764119 21.294376 -2.481819 8.236225 2.576816 60.693932 -6.519254 7.053988 113.457382 -0.309515 0.155545 -40.545242 -32.179039 26.483587 -43.744991 6.912920 -1.608919 46.962410 -4.038734 -4.415366 34.720264 2.907403 -10.951469 -31.293007 -2.295092 -1.980147 37.094982 4.593080 3.511528 -9.661806 3.475966 18.508978 
-16.845783 42.610207 -36.264030 7.369390 1.025595 -7.794159 24.412958 -4.671844 15.345111 -5.082356 -6.695002 3.716293 -12.000000 0.000000 0.000000 -21.844681 -19.159836 47.232983 -0.472245 -9.183268 4.267853 -71.534828 39.888805 -4.415379 -95.876312 0.184473 0.401437 38.466068 -15.977611 20.667259 -1.904699 4.107731 3.845438 60.662071 3.980742 4.202951 109.766319 -0.474441 0.191622 -43.637882 -34.509041 32.871422 -39.714027 9.042250 -0.181312 43.602840 -4.445962 -4.130350 33.851254 2.840712 -12.307174 -29.144831 -1.191125 1.254895 32.319664 4.789059 3.451421 -6.534100 5.044789 17.389048 
